<svg xmlns="http://www.w3.org/2000/svg" width="64" height="64" viewBox="0 0 64 64">
  <defs>
    <linearGradient id="g" x1="0" y1="0" x2="1" y2="1">
      <stop offset="0" stop-color="#7c5cff"/>
      <stop offset="1" stop-color="#27d3ff"/>
    </linearGradient>
    <filter id="s" x="-20%" y="-20%" width="140%" height="140%">
      <feDropShadow dx="0" dy="2" stdDeviation="2" flood-color="#000" flood-opacity="0.35"/>
    </filter>
  </defs>
  <rect x="6" y="6" width="52" height="52" rx="14" fill="rgba(0,0,0,0.55)" stroke="rgba(255,255,255,0.18)"/>
  <path filter="url(#s)" d="M23 18h22v6H29.8l-1.1 7.2c1.7-1.1 3.7-1.7 6.1-1.7 7.2 0 12.2 4.2 12.2 11.1 0 7.1-5.6 11.6-13.8 11.6-6.3 0-11.1-2.6-13.2-7.4l6.6-2.5c1.1 2.6 3.1 3.9 6.4 3.9 3.7 0 6.1-1.8 6.1-5.1 0-3.1-2.3-5.0-6.0-5.0-2.6 0-4.5.7-6.0 2.2l-5.8-1.5L23 18z" fill="url(#g)"/>
</svg>

